<svg width="169" height="25" viewBox="0 0 169 25" fill="none" xmlns="http://www.w3.org/2000/svg">
<path d="M13.9677 7.32779C13.8727 6.36975 13.4653 5.6255 12.7454 5.09501C12.0254 4.56453 11.0483 4.29929 9.81416 4.29929C8.97555 4.29929 8.26747 4.41805 7.68994 4.65558C7.1124 4.88519 6.66936 5.20586 6.36081 5.61758C6.06018 6.0293 5.90986 6.49644 5.90986 7.019C5.89404 7.45447 5.98502 7.83452 6.1828 8.15915C6.3885 8.48377 6.66936 8.76485 7.02537 9.00238C7.38139 9.23199 7.79279 9.43389 8.25956 9.60808C8.72634 9.77435 9.22476 9.91686 9.75483 10.0356L11.9384 10.5582C12.9985 10.7957 13.9716 11.1124 14.8577 11.5083C15.7438 11.9042 16.5112 12.3911 17.16 12.9691C17.8087 13.5471 18.3111 14.228 18.6671 15.0119C19.031 15.7957 19.2169 16.6944 19.2248 17.7078C19.2169 19.1964 18.8372 20.4869 18.0856 21.5796C17.3419 22.6643 16.266 23.5075 14.8577 24.1093C13.4574 24.7031 11.7683 25 9.79043 25C7.82839 25 6.11951 24.6991 4.6638 24.0974C3.21601 23.4956 2.08467 22.6049 1.26979 21.4252C0.46282 20.2375 0.0395573 18.7688 0 17.019H4.97235C5.02773 17.8345 5.26112 18.5154 5.67251 19.0618C6.09182 19.6002 6.64958 20.0079 7.34579 20.285C8.04991 20.5542 8.84501 20.6888 9.73109 20.6888C10.6014 20.6888 11.3569 20.5622 11.9977 20.3088C12.6465 20.0554 13.1488 19.7031 13.5049 19.2518C13.8609 18.8005 14.0389 18.2819 14.0389 17.696C14.0389 17.1496 13.8767 16.6904 13.5523 16.3183C13.2359 15.9462 12.7691 15.6295 12.152 15.3682C11.5428 15.1069 10.7952 14.8694 9.9091 14.6556L7.26272 13.9905C5.21365 13.4917 3.59576 12.7118 2.40904 11.6508C1.22232 10.5899 0.632917 9.16073 0.640828 7.36342C0.632917 5.89074 1.02453 4.60412 1.81568 3.50356C2.61474 2.40301 3.71047 1.54394 5.10289 0.926366C6.49531 0.308789 8.0776 0 9.84977 0C11.6536 0 13.228 0.308789 14.5729 0.926366C15.9258 1.54394 16.978 2.40301 17.7296 3.50356C18.4812 4.60412 18.8688 5.87886 18.8926 7.32779H13.9677Z" fill="#137ED9"/>
<path d="M24.2619 4.57245V0.332542H44.2225V4.57245H36.7817V24.6556H31.7026V4.57245H24.2619Z" fill="#137ED9"/>
<path d="M51.2354 24.6556H45.729L54.1191 0.332542H60.741L69.1192 24.6556H63.6129L57.525 5.89074H57.3351L51.2354 24.6556ZM50.8912 15.095H63.8977V19.1093H50.8912V15.095Z" fill="#137ED9"/>
<path d="M74.5509 24.6556V0.332542H84.1395C85.975 0.332542 87.5415 0.661125 88.8389 1.31829C90.1443 1.96754 91.1372 2.88994 91.8176 4.08551C92.5059 5.27316 92.8501 6.67063 92.8501 8.27791C92.8501 9.89311 92.502 11.2827 91.8057 12.4466C91.1095 13.6025 90.1008 14.4893 88.7796 15.1069C87.4663 15.7245 85.8761 16.0333 84.009 16.0333H77.5889V11.9002H83.1783C84.1593 11.9002 84.9742 11.7656 85.6229 11.4964C86.2717 11.2272 86.7543 10.8234 87.0707 10.285C87.3951 9.74664 87.5573 9.07759 87.5573 8.27791C87.5573 7.47031 87.3951 6.78939 87.0707 6.23516C86.7543 5.68092 86.2677 5.26128 85.6111 4.97625C84.9623 4.68329 84.1435 4.53682 83.1546 4.53682H79.6893V24.6556H74.5509ZM87.676 13.5867L93.7164 24.6556H88.0438L82.134 13.5867H87.676Z" fill="#137ED9"/>
<path d="M98.0621 4.57245V0.332542H118.023V4.57245H110.582V24.6556H105.503V4.57245H98.0621Z" fill="#137ED9"/>
<path d="M138.828 0.332542H143.967V16.1283C143.967 17.9018 143.544 19.4537 142.697 20.7838C141.858 22.114 140.684 23.1512 139.172 23.8955C137.661 24.6318 135.901 25 133.892 25C131.874 25 130.11 24.6318 128.599 23.8955C127.088 23.1512 125.913 22.114 125.074 20.7838C124.236 19.4537 123.816 17.9018 123.816 16.1283V0.332542H128.955V15.6888C128.955 16.6152 129.157 17.4386 129.56 18.1591C129.971 18.8797 130.549 19.4458 131.293 19.8575C132.036 20.2692 132.903 20.4751 133.892 20.4751C134.888 20.4751 135.755 20.2692 136.49 19.8575C137.234 19.4458 137.808 18.8797 138.211 18.1591C138.623 17.4386 138.828 16.6152 138.828 15.6888V0.332542Z" fill="#137ED9"/>
<path d="M150.701 24.6556V0.332542H160.289C162.133 0.332542 163.703 0.684878 165.001 1.38955C166.298 2.0863 167.287 3.05621 167.968 4.29929C168.656 5.53444 169 6.95962 169 8.57482C169 10.19 168.652 11.6152 167.956 12.8504C167.259 14.0855 166.251 15.0475 164.93 15.7363C163.616 16.4252 162.026 16.7696 160.159 16.7696H154.047V12.6485H159.328C160.317 12.6485 161.132 12.4782 161.773 12.1378C162.422 11.7894 162.904 11.3104 163.221 10.7007C163.545 10.0831 163.707 9.37451 163.707 8.57482C163.707 7.76722 163.545 7.06255 163.221 6.46081C162.904 5.85115 162.422 5.38005 161.773 5.04751C161.124 4.70705 160.301 4.53682 159.305 4.53682H155.839V24.6556H150.701Z" fill="#137ED9"/>
</svg>
